<?xml version="1.0" encoding="UTF-8" standalone="no"?>
<svg
   version="1.1"
   width="1000"
   height="1000"
   id="svg72"
   sodipodi:docname="favicon.svg"
   xmlns:sodipodi="http://sodipodi.sourceforge.net/DTD/sodipodi-0.dtd"
   xmlns="http://www.w3.org/2000/svg"
   xmlns:svg="http://www.w3.org/2000/svg">
  <sodipodi:namedview
     id="namedview182" />
  <defs
     id="defs74" />
  <rect
     width="1000"
     height="1000"
     rx="100"
     ry="100"
     fill="#ffffff"
     id="rect55" />
  <path
     d="m 29.823702,326.55143 c -0.04,0.25 -0.2,0.45 -0.43,0.55 -0.24,0.09 -0.49,0.06 -0.7,-0.09 -0.29,-0.21 -0.57,-0.43 -0.85,-0.65 -2.46,-1.96 -4.61,-4.33 -6.7,-6.71 -3,-3.4 -5.9,-6.83 -8.89,-10.23 -3.4400001,-3.9 -7.0000001,-7.75 -9.9300001,-12.04 -0.5,-0.73 -0.98,-1.48 -1.45000004,-2.23 -0.75,-1.21 -1.03,-2.59 -0.79,-3.99 0.13,-0.73 0.25,-1.47 0.37,-2.2 1.35000004,-7.85 2.99000004,-15.75 5.40000004,-23.4 2.86,-9.08 6.8000001,-17.81 11.2900001,-26.21 6.11,-11.39 13.26,-22.16 20.71,-32.69 7.11,-10.05 14.5,-19.88 21.41,-30.07 4.55,-6.72 8.89,-13.61 12.02,-21.02 1.57,-3.72 2.84,-7.58 3.83,-11.51 2.74,-10.9 3.36,-22.32 4.62,-33.6 1.3,-11.630002 3.28,-23.110002 6.27,-34.440002 3.66,-13.92 8.84,-27.62 17.059998,-39.5 5.59,-8.07 12.59,-15.29 20.84,-20.5 7.76,-4.89 16.63,-7.9999997 25.62,-9.8999997 7.25,-1.52 14.57,-2.26 21.94,-2.54 0.07,6.8299997 0.15,12.2599997 0.22,17.6899997 0.22,15.77 0.45,31.54 0.64,47.31 0.12,10.87 0.23,21.74 0.43,32.600002 0.19,9.7 0.46,19.39 0.4,29.12 -0.02,2.65 -0.07,5.31 0.12,7.94 0.08,1.24 0.22,2.47 0.39,3.7 0.03,0.23 0.21,0.4 0.45,0.41 0.24,0.01 0.43,-0.14 0.49,-0.37 0.09,-0.4 0.18,-0.8 0.26,-1.2 0.3,-1.45 0.49,-2.93 0.6,-4.42 0.2,-2.81 0.09,-5.65 0.03,-8.48 -0.09,-4.07 -0.07,-8.11 -0.07,-12.15 0,-8.23 -0.13,-16.470002 -0.2,-24.710002 -0.16,-16.65 -0.17,-33.3 -0.31,-49.95 -0.08,-9.21 -0.2,-18.42 -0.31,-27.66 -0.05,-4.2699997 -0.1,-8.5399997 -0.09,-12.7999997 0.03,0 0.06,-0.03 0.09,-0.04 0.16,-0.07 0.34,-0.1 0.52,-0.12 0.95,-0.13 1.88,-0.19 2.81,-0.25 3.01,-0.17 6.04,-0.21 9.07,-0.2 3.02,-0.01 6.05,0.03 9.06,0.2 0.94,0.06 1.87,0.12 2.81,0.25 0.18,0.02 0.36,0.05 0.53,0.12 0.03,0.01 0.05,0.03 0.08,0.04 0.01,4.26 -0.03,8.53 -0.08,12.7999997 -0.11,9.24 -0.23,18.45 -0.31,27.66 -0.15,16.65 -0.16,33.3 -0.31,49.95 -0.08,8.24 -0.19,16.480002 -0.2,24.710002 -0.01,4.04 0.02,8.08 -0.07,12.15 -0.06,2.83 -0.18,5.67 0.02,8.48 0.11,1.49 0.31,2.97 0.6,4.42 0.08,0.4 0.17,0.8 0.27,1.2 0.05,0.23 0.25,0.38 0.48,0.37 0.24,-0.01 0.42,-0.18 0.45,-0.41 0.18,-1.23 0.31,-2.46 0.4,-3.7 0.18,-2.63 0.14,-5.29 0.12,-7.94 -0.07,-9.73 0.2,-19.42 0.39,-29.12 0.21,-10.860002 0.31,-21.730002 0.44,-32.600002 0.18,-15.77 0.42,-31.54 0.63,-47.31 0.08,-5.43 0.15,-10.86 0.22,-17.6899997 7.37,0.28 14.7,1.02 21.94,2.54 9,1.9 17.86,5.0099997 25.62,9.8999997 8.26,5.21 15.26,12.43 20.84,20.5 8.23,11.88 13.4,25.58 17.07,39.5 2.98,11.33 4.97,22.81 6.27,34.440002 1.26,11.28 1.87,22.7 4.62,33.6 0.99,3.93 2.26,7.79 3.83,11.51 3.13,7.41 7.47,14.3 12.02,21.02 6.9,10.19 14.29,20.02 21.4,30.07 7.46,10.53 14.6,21.3 20.71,32.69 4.5,8.4 8.44,17.13 11.29,26.21 2.41,7.65 4.05,15.55 5.4,23.4 0.13,0.73 0.25,1.47 0.37,2.2 0.24,1.4 -0.03,2.78 -0.78,3.99 -0.47,0.75 -0.95,1.5 -1.46,2.23 -2.92,4.29 -6.48,8.14 -9.93,12.04 -2.99,3.4 -5.88,6.83 -8.88,10.23 -2.1,2.38 -4.25,4.75 -6.71,6.71 -0.28,0.22 -0.56,0.44 -0.85,0.65 -0.2,0.15 -0.45,0.18 -0.69,0.09 -0.24,-0.1 -0.4,-0.3 -0.44,-0.55 -0.47,-2.96 -0.97,-5.91 -1.5,-8.86 -2.07,-11.31 -4.79,-22.49 -7.89,-33.58 -4.14,-14.77 -8.96,-29.36 -14.88,-43.47 -2.74,-6.53 -5.71,-12.96 -8.9,-19.31 -5.47,-10.94 -11.57,-21.68 -19.73,-30.82 -4.87,-5.46 -10.49,-10.35 -16.92,-13.84 -5.77,-3.12 -12.19,-5.12 -18.75,-5.7 -0.68,-0.06 -1.36,-0.1 -2.04,-0.13 -5.17,-0.22 -10.39,0.45 -15.29,2.02 -7.04,2.25 -13.45,6.37 -19,11.26 -4.47,3.93 -8.39,8.36 -12.04,13.07 -3.04,3.91 -5.89,8.02 -9.76,11.09 -1.82,1.44 -3.85,2.65 -6.07,3.35 -1.42,0.45 -2.91,0.69 -4.4,0.71 -1.5,-0.02 -2.99,-0.26 -4.4,-0.71 -2.22,-0.7 -4.26,-1.91 -6.07,-3.35 -0.73,-0.57 -1.42,-1.19 -2.08,-1.83 -2.87,-2.77 -5.22,-6.08 -7.69,-9.26 -3.65,-4.71 -7.56,-9.14 -12.03,-13.07 -5.56,-4.89 -11.97,-9.01 -19.01,-11.26 -4.9,-1.57 -10.11,-2.24 -15.29,-2.02 -0.68,0.03 -1.36,0.07 -2.04,0.13 -6.56,0.58 -12.98,2.58 -18.749998,5.7 -6.43,3.49 -12.04,8.38 -16.92,13.84 -8.16,9.14 -14.25,19.88 -19.73,30.82 -3.18,6.35 -6.16,12.78 -8.89,19.31 -5.92,14.11 -10.75,28.7 -14.88,43.47 -3.11,11.09 -5.83,22.27 -7.89,33.58 -0.54,2.95 -1.03,5.9 -1.51,8.86 z m 263.279998,-157.93 c 0.01,-0.05 0.01,-0.09 0.02,-0.14 -0.36,-0.15 -0.72,-0.32 -1.06,-0.51 -0.97,-0.52 -1.86,-1.2 -2.76,-1.85 -1.62,-1.18 -3.27,-2.31 -4.94,-3.39 -4.48,-2.87 -9.19,-5.43 -14.1,-7.54 -5.16,-2.22 -10.55,-3.95 -16.1,-4.87 -5.34,-0.89 -10.84,-1.04 -16.2,-0.26 -4.47,0.65 -8.85,1.95 -13.01,3.71 -3.6,1.53 -7.04,3.41 -10.27,5.58 -1.39,0.93 -2.75,1.92 -4.09,2.93 -0.17,0.12 -0.21,0.33 -0.09,0.51 0.11,0.17 0.31,0.23 0.5,0.13 0.39,-0.21 0.78,-0.41 1.17,-0.61 1.62,-0.85 3.25,-1.68 4.92,-2.44 2.24,-1.01 4.54,-1.88 6.89,-2.63 4.36,-1.39 8.88,-2.34 13.44,-2.66 5.35,-0.37 10.75,0.12 16.07,0.95 4.81,0.76 9.56,1.8 14.19,3.23 4.45,1.37 8.8,3.09 13.06,4.99 2.13,0.94 4.24,1.93 6.32,2.96 1.06,0.53 2.11,1.07 3.21,1.55 0.58,0.25 1.16,0.48 1.77,0.6 0.19,0.04 0.39,0.06 0.59,0.05 0.12,-0.01 0.24,-0.03 0.33,-0.1 0.06,-0.04 0.11,-0.12 0.14,-0.19 z m -129.6,-5.83 c 0.11,-0.18 0.07,-0.39 -0.1,-0.51 -1.34,-1.01 -2.69,-2 -4.08,-2.93 -3.24,-2.17 -6.68,-4.05 -10.28,-5.58 -4.16,-1.76 -8.53,-3.06 -13.01,-3.71 -5.35,-0.78 -10.85,-0.63 -16.2,0.26 -5.55,0.92 -10.93,2.65 -16.09,4.87 -4.909998,2.11 -9.619998,4.67 -14.099998,7.54 -1.68,1.08 -3.33,2.21 -4.95,3.39 -0.89,0.65 -1.78,1.33 -2.75,1.85 -0.35,0.19 -0.7,0.36 -1.06,0.51 0,0.05 0,0.09 0.02,0.14 0.02,0.07 0.07,0.15 0.14,0.19 0.09,0.07 0.21,0.09 0.33,0.1 0.2,0.01 0.39,-0.01 0.59,-0.05 0.6,-0.12 1.19,-0.35 1.76,-0.6 1.1,-0.48 2.15,-1.02 3.22,-1.55 2.08,-1.03 4.19,-2.02 6.31,-2.96 4.27,-1.9 8.609998,-3.62 13.059998,-4.99 4.63,-1.43 9.38,-2.47 14.19,-3.23 5.32,-0.83 10.72,-1.32 16.07,-0.95 4.56,0.32 9.08,1.27 13.45,2.66 2.35,0.75 4.65,1.62 6.89,2.63 1.66,0.76 3.29,1.59 4.92,2.44 0.39,0.2 0.78,0.4 1.17,0.61 0.18,0.1 0.39,0.04 0.5,-0.13 z"
     id="path43"
     style="display:inline"
     transform="matrix(2.4064248,0,0,2.4064248,50.000069,106.3666)" />
</svg>
